<mxfile host="app.diagrams.net" modified="2023-12-19T15:20:50.439Z" agent="Mozilla/5.0 (Windows NT 10.0; Win64; x64) AppleWebKit/537.36 (KHTML, like Gecko) Chrome/120.0.0.0 Safari/537.36 Edg/120.0.0.0" etag="39wr8kF_51rcCmwaS3Hq" version="22.1.11" type="device">
  <diagram name="第 1 页" id="T0H_jW8mQAQ5ZD8-L1ZV">
    <mxGraphModel dx="1754" dy="829" grid="1" gridSize="10" guides="1" tooltips="1" connect="1" arrows="1" fold="1" page="1" pageScale="1" pageWidth="827" pageHeight="1169" math="0" shadow="0">
      <root>
        <mxCell id="0" />
        <mxCell id="1" parent="0" />
        <mxCell id="JOZ9yqz7fpE7ERVeTpDa-2" value="&lt;font style=&quot;font-size: 18px;&quot;&gt;S0 / 0&lt;/font&gt;" style="ellipse;whiteSpace=wrap;html=1;aspect=fixed;" vertex="1" parent="1">
          <mxGeometry x="40" y="280" width="80" height="80" as="geometry" />
        </mxCell>
        <mxCell id="JOZ9yqz7fpE7ERVeTpDa-7" value="&lt;font style=&quot;font-size: 18px;&quot;&gt;S4 / 1&lt;/font&gt;" style="ellipse;whiteSpace=wrap;html=1;aspect=fixed;" vertex="1" parent="1">
          <mxGeometry x="550" y="180" width="80" height="80" as="geometry" />
        </mxCell>
        <mxCell id="JOZ9yqz7fpE7ERVeTpDa-8" value="&lt;font style=&quot;font-size: 18px;&quot;&gt;S3 / 0&lt;/font&gt;" style="ellipse;whiteSpace=wrap;html=1;aspect=fixed;" vertex="1" parent="1">
          <mxGeometry x="433" y="180" width="80" height="80" as="geometry" />
        </mxCell>
        <mxCell id="JOZ9yqz7fpE7ERVeTpDa-9" value="&lt;font style=&quot;font-size: 18px;&quot;&gt;S2 / 0&lt;/font&gt;" style="ellipse;whiteSpace=wrap;html=1;aspect=fixed;" vertex="1" parent="1">
          <mxGeometry x="317" y="180" width="80" height="80" as="geometry" />
        </mxCell>
        <mxCell id="JOZ9yqz7fpE7ERVeTpDa-10" value="&lt;font style=&quot;font-size: 18px;&quot;&gt;S1 / 0&lt;/font&gt;" style="ellipse;whiteSpace=wrap;html=1;aspect=fixed;" vertex="1" parent="1">
          <mxGeometry x="200" y="180" width="80" height="80" as="geometry" />
        </mxCell>
        <mxCell id="JOZ9yqz7fpE7ERVeTpDa-12" value="&lt;font style=&quot;font-size: 18px;&quot;&gt;S7 / 0&lt;/font&gt;" style="ellipse;whiteSpace=wrap;html=1;aspect=fixed;" vertex="1" parent="1">
          <mxGeometry x="433" y="380" width="80" height="80" as="geometry" />
        </mxCell>
        <mxCell id="JOZ9yqz7fpE7ERVeTpDa-13" value="&lt;font style=&quot;font-size: 18px;&quot;&gt;S6 / 0&lt;/font&gt;" style="ellipse;whiteSpace=wrap;html=1;aspect=fixed;" vertex="1" parent="1">
          <mxGeometry x="317" y="380" width="80" height="80" as="geometry" />
        </mxCell>
        <mxCell id="JOZ9yqz7fpE7ERVeTpDa-14" value="&lt;font style=&quot;font-size: 18px;&quot;&gt;S5 / 0&lt;/font&gt;" style="ellipse;whiteSpace=wrap;html=1;aspect=fixed;" vertex="1" parent="1">
          <mxGeometry x="200" y="380" width="80" height="80" as="geometry" />
        </mxCell>
        <mxCell id="JOZ9yqz7fpE7ERVeTpDa-20" value="" style="endArrow=classic;html=1;rounded=0;entryX=0;entryY=0.5;entryDx=0;entryDy=0;exitX=1;exitY=0;exitDx=0;exitDy=0;" edge="1" parent="1" source="JOZ9yqz7fpE7ERVeTpDa-2" target="JOZ9yqz7fpE7ERVeTpDa-10">
          <mxGeometry width="50" height="50" relative="1" as="geometry">
            <mxPoint x="390" y="450" as="sourcePoint" />
            <mxPoint x="440" y="400" as="targetPoint" />
          </mxGeometry>
        </mxCell>
        <mxCell id="JOZ9yqz7fpE7ERVeTpDa-22" value="1" style="edgeLabel;html=1;align=center;verticalAlign=middle;resizable=0;points=[];" vertex="1" connectable="0" parent="JOZ9yqz7fpE7ERVeTpDa-20">
          <mxGeometry x="0.2058" y="3" relative="1" as="geometry">
            <mxPoint x="-2" y="-6" as="offset" />
          </mxGeometry>
        </mxCell>
        <mxCell id="JOZ9yqz7fpE7ERVeTpDa-23" value="" style="endArrow=classic;html=1;rounded=0;entryX=0;entryY=0.5;entryDx=0;entryDy=0;exitX=1;exitY=1;exitDx=0;exitDy=0;" edge="1" parent="1" source="JOZ9yqz7fpE7ERVeTpDa-2" target="JOZ9yqz7fpE7ERVeTpDa-14">
          <mxGeometry width="50" height="50" relative="1" as="geometry">
            <mxPoint x="118" y="302" as="sourcePoint" />
            <mxPoint x="210" y="230" as="targetPoint" />
          </mxGeometry>
        </mxCell>
        <mxCell id="JOZ9yqz7fpE7ERVeTpDa-25" value="0&lt;br&gt;" style="edgeLabel;html=1;align=center;verticalAlign=middle;resizable=0;points=[];" vertex="1" connectable="0" parent="JOZ9yqz7fpE7ERVeTpDa-23">
          <mxGeometry x="0.2989" y="-2" relative="1" as="geometry">
            <mxPoint x="-7" y="3" as="offset" />
          </mxGeometry>
        </mxCell>
        <mxCell id="JOZ9yqz7fpE7ERVeTpDa-26" value="" style="endArrow=classic;html=1;rounded=0;exitX=0.5;exitY=1;exitDx=0;exitDy=0;" edge="1" parent="1" source="JOZ9yqz7fpE7ERVeTpDa-10" target="JOZ9yqz7fpE7ERVeTpDa-14">
          <mxGeometry width="50" height="50" relative="1" as="geometry">
            <mxPoint x="118" y="358" as="sourcePoint" />
            <mxPoint x="210" y="430" as="targetPoint" />
          </mxGeometry>
        </mxCell>
        <mxCell id="JOZ9yqz7fpE7ERVeTpDa-27" value="0&lt;br&gt;" style="edgeLabel;html=1;align=center;verticalAlign=middle;resizable=0;points=[];" vertex="1" connectable="0" parent="JOZ9yqz7fpE7ERVeTpDa-26">
          <mxGeometry x="0.2989" y="-2" relative="1" as="geometry">
            <mxPoint x="-7" y="3" as="offset" />
          </mxGeometry>
        </mxCell>
        <mxCell id="JOZ9yqz7fpE7ERVeTpDa-28" value="" style="endArrow=classic;html=1;rounded=0;entryX=0.5;entryY=0;entryDx=0;entryDy=0;exitX=0.5;exitY=1;exitDx=0;exitDy=0;" edge="1" parent="1" source="JOZ9yqz7fpE7ERVeTpDa-9" target="JOZ9yqz7fpE7ERVeTpDa-14">
          <mxGeometry width="50" height="50" relative="1" as="geometry">
            <mxPoint x="300" y="270" as="sourcePoint" />
            <mxPoint x="250" y="390" as="targetPoint" />
          </mxGeometry>
        </mxCell>
        <mxCell id="JOZ9yqz7fpE7ERVeTpDa-29" value="0&lt;br&gt;" style="edgeLabel;html=1;align=center;verticalAlign=middle;resizable=0;points=[];" vertex="1" connectable="0" parent="JOZ9yqz7fpE7ERVeTpDa-28">
          <mxGeometry x="0.2989" y="-2" relative="1" as="geometry">
            <mxPoint x="-7" y="3" as="offset" />
          </mxGeometry>
        </mxCell>
        <mxCell id="JOZ9yqz7fpE7ERVeTpDa-30" value="" style="endArrow=classic;html=1;rounded=0;exitX=0.5;exitY=1;exitDx=0;exitDy=0;entryX=0.5;entryY=0;entryDx=0;entryDy=0;" edge="1" parent="1" source="JOZ9yqz7fpE7ERVeTpDa-8" target="JOZ9yqz7fpE7ERVeTpDa-14">
          <mxGeometry width="50" height="50" relative="1" as="geometry">
            <mxPoint x="260" y="280" as="sourcePoint" />
            <mxPoint x="260" y="400" as="targetPoint" />
          </mxGeometry>
        </mxCell>
        <mxCell id="JOZ9yqz7fpE7ERVeTpDa-31" value="0&lt;br&gt;" style="edgeLabel;html=1;align=center;verticalAlign=middle;resizable=0;points=[];" vertex="1" connectable="0" parent="JOZ9yqz7fpE7ERVeTpDa-30">
          <mxGeometry x="0.2989" y="-2" relative="1" as="geometry">
            <mxPoint x="-7" y="3" as="offset" />
          </mxGeometry>
        </mxCell>
        <mxCell id="JOZ9yqz7fpE7ERVeTpDa-33" value="" style="endArrow=classic;html=1;rounded=0;exitX=0.5;exitY=1;exitDx=0;exitDy=0;" edge="1" parent="1" source="JOZ9yqz7fpE7ERVeTpDa-7">
          <mxGeometry width="50" height="50" relative="1" as="geometry">
            <mxPoint x="310" y="290" as="sourcePoint" />
            <mxPoint x="240" y="380" as="targetPoint" />
          </mxGeometry>
        </mxCell>
        <mxCell id="JOZ9yqz7fpE7ERVeTpDa-34" value="0&lt;br&gt;" style="edgeLabel;html=1;align=center;verticalAlign=middle;resizable=0;points=[];" vertex="1" connectable="0" parent="JOZ9yqz7fpE7ERVeTpDa-33">
          <mxGeometry x="0.2989" y="-2" relative="1" as="geometry">
            <mxPoint x="-7" y="3" as="offset" />
          </mxGeometry>
        </mxCell>
        <mxCell id="JOZ9yqz7fpE7ERVeTpDa-38" value="" style="endArrow=classic;html=1;rounded=0;exitX=0.5;exitY=0;exitDx=0;exitDy=0;" edge="1" parent="1" source="JOZ9yqz7fpE7ERVeTpDa-13">
          <mxGeometry width="50" height="50" relative="1" as="geometry">
            <mxPoint x="250" y="390" as="sourcePoint" />
            <mxPoint x="240" y="260" as="targetPoint" />
          </mxGeometry>
        </mxCell>
        <mxCell id="JOZ9yqz7fpE7ERVeTpDa-39" value="1" style="edgeLabel;html=1;align=center;verticalAlign=middle;resizable=0;points=[];" vertex="1" connectable="0" parent="JOZ9yqz7fpE7ERVeTpDa-38">
          <mxGeometry x="0.2058" y="3" relative="1" as="geometry">
            <mxPoint x="-2" y="-6" as="offset" />
          </mxGeometry>
        </mxCell>
        <mxCell id="JOZ9yqz7fpE7ERVeTpDa-40" value="" style="endArrow=classic;html=1;rounded=0;exitX=0.5;exitY=0;exitDx=0;exitDy=0;entryX=0.5;entryY=1;entryDx=0;entryDy=0;" edge="1" parent="1" source="JOZ9yqz7fpE7ERVeTpDa-12" target="JOZ9yqz7fpE7ERVeTpDa-10">
          <mxGeometry width="50" height="50" relative="1" as="geometry">
            <mxPoint x="260" y="400" as="sourcePoint" />
            <mxPoint x="240" y="270" as="targetPoint" />
          </mxGeometry>
        </mxCell>
        <mxCell id="JOZ9yqz7fpE7ERVeTpDa-41" value="1" style="edgeLabel;html=1;align=center;verticalAlign=middle;resizable=0;points=[];" vertex="1" connectable="0" parent="JOZ9yqz7fpE7ERVeTpDa-40">
          <mxGeometry x="0.2058" y="3" relative="1" as="geometry">
            <mxPoint x="-2" y="-6" as="offset" />
          </mxGeometry>
        </mxCell>
        <mxCell id="JOZ9yqz7fpE7ERVeTpDa-42" value="" style="endArrow=classic;html=1;rounded=0;exitX=0.5;exitY=0;exitDx=0;exitDy=0;" edge="1" parent="1">
          <mxGeometry width="50" height="50" relative="1" as="geometry">
            <mxPoint x="590" y="380" as="sourcePoint" />
            <mxPoint x="240" y="260" as="targetPoint" />
          </mxGeometry>
        </mxCell>
        <mxCell id="JOZ9yqz7fpE7ERVeTpDa-43" value="1" style="edgeLabel;html=1;align=center;verticalAlign=middle;resizable=0;points=[];" vertex="1" connectable="0" parent="JOZ9yqz7fpE7ERVeTpDa-42">
          <mxGeometry x="0.2058" y="3" relative="1" as="geometry">
            <mxPoint x="-2" y="-6" as="offset" />
          </mxGeometry>
        </mxCell>
        <mxCell id="JOZ9yqz7fpE7ERVeTpDa-44" value="" style="endArrow=classic;html=1;rounded=0;entryX=0.5;entryY=1;entryDx=0;entryDy=0;exitX=0.355;exitY=0.033;exitDx=0;exitDy=0;exitPerimeter=0;" edge="1" parent="1">
          <mxGeometry width="50" height="50" relative="1" as="geometry">
            <mxPoint x="239.2000000000001" y="382.6400000000001" as="sourcePoint" />
            <mxPoint x="240.8" y="260" as="targetPoint" />
          </mxGeometry>
        </mxCell>
        <mxCell id="JOZ9yqz7fpE7ERVeTpDa-45" value="1" style="edgeLabel;html=1;align=center;verticalAlign=middle;resizable=0;points=[];" vertex="1" connectable="0" parent="JOZ9yqz7fpE7ERVeTpDa-44">
          <mxGeometry x="0.2058" y="3" relative="1" as="geometry">
            <mxPoint x="-2" y="-6" as="offset" />
          </mxGeometry>
        </mxCell>
        <mxCell id="JOZ9yqz7fpE7ERVeTpDa-48" value="" style="endArrow=classic;html=1;rounded=0;entryX=0;entryY=0.5;entryDx=0;entryDy=0;exitX=1;exitY=0.5;exitDx=0;exitDy=0;" edge="1" parent="1" source="JOZ9yqz7fpE7ERVeTpDa-10" target="JOZ9yqz7fpE7ERVeTpDa-9">
          <mxGeometry width="50" height="50" relative="1" as="geometry">
            <mxPoint x="290" y="230" as="sourcePoint" />
            <mxPoint x="310" y="220" as="targetPoint" />
          </mxGeometry>
        </mxCell>
        <mxCell id="JOZ9yqz7fpE7ERVeTpDa-49" value="1" style="edgeLabel;html=1;align=center;verticalAlign=middle;resizable=0;points=[];" vertex="1" connectable="0" parent="JOZ9yqz7fpE7ERVeTpDa-48">
          <mxGeometry x="0.2058" y="3" relative="1" as="geometry">
            <mxPoint x="-2" y="-6" as="offset" />
          </mxGeometry>
        </mxCell>
        <mxCell id="JOZ9yqz7fpE7ERVeTpDa-53" value="" style="endArrow=classic;html=1;rounded=0;entryX=0;entryY=0.5;entryDx=0;entryDy=0;exitX=1;exitY=0.5;exitDx=0;exitDy=0;" edge="1" parent="1" source="JOZ9yqz7fpE7ERVeTpDa-9" target="JOZ9yqz7fpE7ERVeTpDa-8">
          <mxGeometry width="50" height="50" relative="1" as="geometry">
            <mxPoint x="329.99999999999994" y="225" as="sourcePoint" />
            <mxPoint x="442.96" y="215" as="targetPoint" />
          </mxGeometry>
        </mxCell>
        <mxCell id="JOZ9yqz7fpE7ERVeTpDa-54" value="1" style="edgeLabel;html=1;align=center;verticalAlign=middle;resizable=0;points=[];" vertex="1" connectable="0" parent="JOZ9yqz7fpE7ERVeTpDa-53">
          <mxGeometry x="0.2058" y="3" relative="1" as="geometry">
            <mxPoint x="-2" y="-6" as="offset" />
          </mxGeometry>
        </mxCell>
        <mxCell id="JOZ9yqz7fpE7ERVeTpDa-57" value="" style="endArrow=classic;html=1;rounded=0;entryX=0;entryY=0.5;entryDx=0;entryDy=0;exitX=1;exitY=0.5;exitDx=0;exitDy=0;" edge="1" parent="1" source="JOZ9yqz7fpE7ERVeTpDa-8" target="JOZ9yqz7fpE7ERVeTpDa-7">
          <mxGeometry width="50" height="50" relative="1" as="geometry">
            <mxPoint x="450" y="240" as="sourcePoint" />
            <mxPoint x="347" y="250" as="targetPoint" />
            <Array as="points" />
          </mxGeometry>
        </mxCell>
        <mxCell id="JOZ9yqz7fpE7ERVeTpDa-58" value="1" style="edgeLabel;html=1;align=center;verticalAlign=middle;resizable=0;points=[];" vertex="1" connectable="0" parent="JOZ9yqz7fpE7ERVeTpDa-57">
          <mxGeometry x="0.2058" y="3" relative="1" as="geometry">
            <mxPoint x="-2" y="-6" as="offset" />
          </mxGeometry>
        </mxCell>
        <mxCell id="JOZ9yqz7fpE7ERVeTpDa-63" value="" style="curved=1;endArrow=classic;html=1;rounded=0;exitX=1;exitY=0;exitDx=0;exitDy=0;entryX=1;entryY=0.5;entryDx=0;entryDy=0;" edge="1" parent="1" source="JOZ9yqz7fpE7ERVeTpDa-7" target="JOZ9yqz7fpE7ERVeTpDa-7">
          <mxGeometry width="50" height="50" relative="1" as="geometry">
            <mxPoint x="610" y="170" as="sourcePoint" />
            <mxPoint x="650" y="250" as="targetPoint" />
            <Array as="points">
              <mxPoint x="650" y="170" />
              <mxPoint x="670" y="210" />
            </Array>
          </mxGeometry>
        </mxCell>
        <mxCell id="JOZ9yqz7fpE7ERVeTpDa-67" value="1&lt;br&gt;" style="edgeLabel;html=1;align=center;verticalAlign=middle;resizable=0;points=[];" vertex="1" connectable="0" parent="JOZ9yqz7fpE7ERVeTpDa-63">
          <mxGeometry x="0.5141" y="-5" relative="1" as="geometry">
            <mxPoint y="12" as="offset" />
          </mxGeometry>
        </mxCell>
        <mxCell id="JOZ9yqz7fpE7ERVeTpDa-73" value="&lt;font style=&quot;font-size: 18px;&quot;&gt;S8 / 1&lt;/font&gt;" style="ellipse;whiteSpace=wrap;html=1;aspect=fixed;" vertex="1" parent="1">
          <mxGeometry x="550" y="380" width="80" height="80" as="geometry" />
        </mxCell>
        <mxCell id="JOZ9yqz7fpE7ERVeTpDa-74" value="" style="curved=1;endArrow=classic;html=1;rounded=0;exitX=1;exitY=0;exitDx=0;exitDy=0;entryX=1;entryY=0.5;entryDx=0;entryDy=0;" edge="1" parent="1" source="JOZ9yqz7fpE7ERVeTpDa-73" target="JOZ9yqz7fpE7ERVeTpDa-73">
          <mxGeometry width="50" height="50" relative="1" as="geometry">
            <mxPoint x="610" y="370" as="sourcePoint" />
            <mxPoint x="650" y="450" as="targetPoint" />
            <Array as="points">
              <mxPoint x="650" y="370" />
              <mxPoint x="670" y="410" />
            </Array>
          </mxGeometry>
        </mxCell>
        <mxCell id="JOZ9yqz7fpE7ERVeTpDa-75" value="0&lt;br&gt;" style="edgeLabel;html=1;align=center;verticalAlign=middle;resizable=0;points=[];" vertex="1" connectable="0" parent="JOZ9yqz7fpE7ERVeTpDa-74">
          <mxGeometry x="0.5141" y="-5" relative="1" as="geometry">
            <mxPoint y="12" as="offset" />
          </mxGeometry>
        </mxCell>
        <mxCell id="JOZ9yqz7fpE7ERVeTpDa-76" value="" style="endArrow=classic;html=1;rounded=0;entryX=0;entryY=0.5;entryDx=0;entryDy=0;exitX=1;exitY=0.5;exitDx=0;exitDy=0;" edge="1" parent="1" source="JOZ9yqz7fpE7ERVeTpDa-14" target="JOZ9yqz7fpE7ERVeTpDa-13">
          <mxGeometry width="50" height="50" relative="1" as="geometry">
            <mxPoint x="290" y="230" as="sourcePoint" />
            <mxPoint x="327" y="230" as="targetPoint" />
          </mxGeometry>
        </mxCell>
        <mxCell id="JOZ9yqz7fpE7ERVeTpDa-77" value="0&lt;br&gt;" style="edgeLabel;html=1;align=center;verticalAlign=middle;resizable=0;points=[];" vertex="1" connectable="0" parent="JOZ9yqz7fpE7ERVeTpDa-76">
          <mxGeometry x="0.2058" y="3" relative="1" as="geometry">
            <mxPoint x="-2" y="-6" as="offset" />
          </mxGeometry>
        </mxCell>
        <mxCell id="JOZ9yqz7fpE7ERVeTpDa-82" value="" style="endArrow=classic;html=1;rounded=0;entryX=0;entryY=0.5;entryDx=0;entryDy=0;exitX=1;exitY=0.5;exitDx=0;exitDy=0;" edge="1" parent="1" source="JOZ9yqz7fpE7ERVeTpDa-13" target="JOZ9yqz7fpE7ERVeTpDa-12">
          <mxGeometry width="50" height="50" relative="1" as="geometry">
            <mxPoint x="370" y="460" as="sourcePoint" />
            <mxPoint x="430" y="430" as="targetPoint" />
          </mxGeometry>
        </mxCell>
        <mxCell id="JOZ9yqz7fpE7ERVeTpDa-83" value="0&lt;br&gt;" style="edgeLabel;html=1;align=center;verticalAlign=middle;resizable=0;points=[];" vertex="1" connectable="0" parent="JOZ9yqz7fpE7ERVeTpDa-82">
          <mxGeometry x="0.2058" y="3" relative="1" as="geometry">
            <mxPoint x="-2" y="-6" as="offset" />
          </mxGeometry>
        </mxCell>
        <mxCell id="JOZ9yqz7fpE7ERVeTpDa-85" value="" style="endArrow=classic;html=1;rounded=0;entryX=0;entryY=0.5;entryDx=0;entryDy=0;" edge="1" parent="1" source="JOZ9yqz7fpE7ERVeTpDa-12" target="JOZ9yqz7fpE7ERVeTpDa-73">
          <mxGeometry width="50" height="50" relative="1" as="geometry">
            <mxPoint x="310" y="450" as="sourcePoint" />
            <mxPoint x="347" y="450" as="targetPoint" />
          </mxGeometry>
        </mxCell>
        <mxCell id="JOZ9yqz7fpE7ERVeTpDa-86" value="0&lt;br&gt;" style="edgeLabel;html=1;align=center;verticalAlign=middle;resizable=0;points=[];" vertex="1" connectable="0" parent="JOZ9yqz7fpE7ERVeTpDa-85">
          <mxGeometry x="0.2058" y="3" relative="1" as="geometry">
            <mxPoint x="-2" y="-6" as="offset" />
          </mxGeometry>
        </mxCell>
      </root>
    </mxGraphModel>
  </diagram>
</mxfile>
